<svg xmlns="http://www.w3.org/2000/svg" width="15.95" height="16" viewBox="0 0 15.95 16"><g id="e0c45b9d-b071-4055-a7f0-af04beea7a32" data-name="Layer 2"><g id="a68dbd0c-7b7e-4065-a6ae-05315070a21c" data-name="Layer 1"><path d="M13.2,8.55h-.15c-.44,0-.68,0-.71.09s0,.27.23.64l.1.16,1,1.82c.43.81.77,1.41,1,1.82a3.52,3.52,0,0,1,.27,1,9.7,9.7,0,0,1,.14,1.25q0,.52,0,.66L13,13.86c-1.33-1.4-2.21-2.31-2.64-2.74l-.73,1.35q-.78,1.41-.78,1.44a3.31,3.31,0,0,1-.52.95,5.39,5.39,0,0,1-.89.79V13.18a3.49,3.49,0,0,0,0-.81c0-.09-.15-.09-.34,0l-.52.28-1.74.95L2.94,14.65a3.42,3.42,0,0,1-1,.27,10.05,10.05,0,0,1-1.28.13H0c.17-.14.88-.81,2.14-2S4.3,11,4.86,10.41L3.48,9.66,2,8.88a3.38,3.38,0,0,1-.94-.52,5.39,5.39,0,0,1-.79-.89H2.9a2.06,2.06,0,0,0,.7-.06c.07,0,0-.19-.08-.42l-.15-.3a.51.51,0,0,1-.08-.13c-.23-.4-.56-1-1-1.81s-.77-1.41-1-1.81a2.89,2.89,0,0,1-.27-1A10.3,10.3,0,0,1,.88.65,5.2,5.2,0,0,1,.89,0C1.06.2,1.75,1,3,2.24S5.06,4.42,5.56,4.89l.75-1.35q.54-.94.78-1.44a2.93,2.93,0,0,1,.5-.94A5.23,5.23,0,0,1,8.5.35c0,1.17,0,2,0,2.47V3c0,.45,0,.7.09.74s.27,0,.63-.23l.19-.1c.41-.23,1-.57,1.81-1l1.81-1a3,3,0,0,1,1-.27A11.71,11.71,0,0,1,15.32,1,2.64,2.64,0,0,1,16,1c-.16.13-.86.8-2.11,2S11.68,5,11.11,5.59l1.36.75.4.22.4.22.31.18.24.13.12,0a3.5,3.5,0,0,1,.94.51,5.63,5.63,0,0,1,.79.9H13.2ZM8,9.52,9.5,8,8,6.48,6.47,8Z" fill="#fff"/></g></g></svg>