<svg xmlns="http://www.w3.org/2000/svg" width="11.84" height="16" viewBox="0 0 11.84 16"><g id="bdd23dcd-69d8-4f84-904b-1df9caf6a5e5" data-name="Layer 2"><g id="ac80e827-cf41-4db7-b1e7-706ea41a79d9" data-name="Layer 1"><path d="M11.71,9.8a4.89,4.89,0,0,1-2,5.15,6.41,6.41,0,0,1-2,1l-.2,0a4.51,4.51,0,0,0,1.75-1.28A3.65,3.65,0,0,0,10,13.36a3.5,3.5,0,0,0,.11-1.47,4.06,4.06,0,0,0-.5-1.44c-.41-.72-1-1.72-1.87-3S6.3,5.27,5.93,4.68c0,0,0,0,0,0h0q-.54.88-1.8,2.79c-.84,1.26-1.47,2.26-1.88,3a4,4,0,0,0-.49,1.44,3.5,3.5,0,0,0,.11,1.47,3.63,3.63,0,0,0,.74,1.36A4.54,4.54,0,0,0,4.34,16l-.2,0a6.39,6.39,0,0,1-2-1,4.9,4.9,0,0,1-2-5.15,9.19,9.19,0,0,1,1.37-3q.31-.5,1.62-2.46c.86-1.31,1.52-2.33,2-3.06.09-.17.24-.4.43-.71s.33-.51.4-.62l.39.62c.2.31.34.54.44.71.34.55.71,1.14,1.1,1.74L9.19,5.12c.51.75.89,1.33,1.15,1.73A9.89,9.89,0,0,1,11.71,9.8Zm-4,4.3a2.24,2.24,0,0,1-1.79,1,2.33,2.33,0,0,1-1.81-1,2.05,2.05,0,0,1-.19-2.4c.18-.34.38-.7.59-1.07l.75-1.26c.29-.47.51-.84.66-1.1l.65,1.09q.45.75.75,1.29c.21.36.4.71.59,1A2,2,0,0,1,7.71,14.1Z" fill="#fff"/></g></g></svg>