<svg xmlns="http://www.w3.org/2000/svg" width="16" height="15.89" viewBox="0 0 16 15.89"><g id="ad924bc7-dece-48e6-996c-bd93a08166af" data-name="Layer 2"><g id="b9e8f440-4a7f-4196-beba-7aff550ec6e9" data-name="Layer 1"><path d="M0,15.88c0-1.2,0-2.33,0-3.46A.84.84,0,0,1,.26,12Q6.1,6.12,12,.28A.84.84,0,0,1,12.46,0C13.6,0,14.77,0,16,0V2.2a2.8,2.8,0,0,1-1.08,2.55C11.29,8.3,7.72,11.91,4.14,15.51a1.16,1.16,0,0,1-.93.38C2.17,15.86,1.13,15.88,0,15.88Z" fill="#fff"/><path d="M7,0,.05,7a4,4,0,0,1,0-.44V1.49A1.32,1.32,0,0,1,1.52,0Z" fill="#fff"/><path d="M9.06,15.86,15.92,9a2.27,2.27,0,0,1,0,.34v5.07a1.29,1.29,0,0,1-1.47,1.47h-5Z" fill="#fff"/></g></g></svg>