<svg xmlns="http://www.w3.org/2000/svg" width="16" height="16" viewBox="0 0 16 16"><g id="a03130ed-d496-4285-b437-dceba3081651" data-name="Layer 2"><g id="aa1d25e3-5c98-4383-a289-d7666f273a4a" data-name="Layer 1"><path d="M15.37,4.9A7.85,7.85,0,0,1,16,8a8.05,8.05,0,0,1-.63,3.12,8,8,0,0,1-4.25,4.25A8.05,8.05,0,0,1,8,16a7.85,7.85,0,0,1-3.1-.63,7.76,7.76,0,0,1-2.55-1.72A7.35,7.35,0,0,1,.64,11.12,7.88,7.88,0,0,1,0,8,7.79,7.79,0,0,1,.64,4.9,7.33,7.33,0,0,1,2.35,2.35,7.92,7.92,0,0,1,4.9.63,8.1,8.1,0,0,1,8,0a8.43,8.43,0,0,1,3.12.63,8.26,8.26,0,0,1,2.55,1.72A8,8,0,0,1,15.37,4.9ZM7.92,1.11a6.77,6.77,0,0,0-2.58.49A6.36,6.36,0,0,0,3.25,2.94,6.69,6.69,0,0,0,1.81,5a7.14,7.14,0,0,0-.68,2.47h0V7.25l0-.19,0-.09V6.89l.05-.18a.11.11,0,0,1,0,0v0l0-.08v-.1a.22.22,0,0,0,0-.08A9.38,9.38,0,0,1,2,5a7.19,7.19,0,0,1,.92-1.15A5.64,5.64,0,0,1,4.09,3,7.8,7.8,0,0,1,5.44,2.3l.18,0,.09,0h.1l.18,0,.19-.05c.05,0,.07,0,.08,0l.1,0h.19l.19,0h.94l.37,0s0,0,.09,0l.06,0h0l.18.05H8.6l.09,0h.05l0,0A.64.64,0,0,1,9,2.3H9l.05,0h0l0,0h0l.11,0,0,0h0l.08,0s.07,0,.08,0h.06l0,0a.11.11,0,0,0,.08,0l.08,0h0l.05,0a5.77,5.77,0,0,1,2.1,1.84,4.38,4.38,0,0,1,.6,1.15l0,0v0l0,.07,0,.16,0,.06a.13.13,0,0,0,0,.06v0l.05.17a1.2,1.2,0,0,1,0,.14l0,.16s0,0,0,.08a.25.25,0,0,1,0,.08l0,0v.09a0,0,0,0,1,0,0,5.45,5.45,0,0,1,0,1.2,7,7,0,0,1-.22,1.08,7.7,7.7,0,0,1-.4.9c-.3.43-.47.67-.51.71a.53.53,0,0,1-.12.15l-.14.16-.14.13-.08.06s0,0,0,0l0,0-.09.06-.07.07-.08.06-.07.06-.16.11-.17.11a.11.11,0,0,1-.07,0,3.1,3.1,0,0,0,.61-.25A4.89,4.89,0,0,0,12,11a6.23,6.23,0,0,0,.79-.86,7.55,7.55,0,0,0,.58-1v0a.08.08,0,0,0,0,0l0-.06,0-.06V8.84s0,0,0,0l.06-.12V8.6l0-.07,0-.14a.05.05,0,0,1,0,0v0l0-.08a.45.45,0,0,0,0-.13l0-.14V7.82l0-.14V7.54a.5.5,0,0,0,0-.15V7.25l0-.08V7.1a.44.44,0,0,0,0-.15V6.81a.86.86,0,0,0,0-.15V6.52a.4.4,0,0,1,0-.15.08.08,0,0,1,0-.06V6.23a.23.23,0,0,0,0-.07s0-.06,0-.08a.49.49,0,0,1,0-.12q0-.13,0-.15l-.05-.14-.06-.23a4.24,4.24,0,0,0-.29-.71,6.38,6.38,0,0,0-.58-1,.44.44,0,0,0-.08-.11.53.53,0,0,0-.09-.11l-.08-.1a.28.28,0,0,1-.07-.11L12,3l-.39-.35-.21-.17-.19-.14a6.71,6.71,0,0,0-1.66-.85H9.46a.06.06,0,0,0-.05,0H9.32l-.09,0H9.11l-.1,0H8.92l-.2,0A6.26,6.26,0,0,0,7.92,1.11ZM8,14.89h.06a6.3,6.3,0,0,0,4.68-1.78,7.31,7.31,0,0,0,2.1-4.53v0l0,.08v0a0,0,0,0,1,0,0v0a1.5,1.5,0,0,1,0,.18l0,.08,0,.09,0,.18v0s0,0,0,0l0,.18a.13.13,0,0,1,0,.06v0A5.7,5.7,0,0,1,14,11a6.28,6.28,0,0,1-.92,1.15,5.82,5.82,0,0,1-1.17.94,5.44,5.44,0,0,1-1.33.63l-.2.06H10.3l-.09,0-.18,0-.2,0H9.74l-.1,0-.18,0H9.08l-.19,0H8.71a.66.66,0,0,1-.19,0h-.2l-.37,0H7.77l-.19,0H7.5l-.1,0H7.28l0,0-.18,0H7l0,0-.09,0-.09,0,0,0h0l-.17-.07,0,0-.06,0h0l0,0h0l0,0h0l0,0,0,0a5.19,5.19,0,0,1-2.1-1.83,5.62,5.62,0,0,1-.62-1.16l0-.07a.06.06,0,0,0,0,0,.08.08,0,0,1,0,0,.77.77,0,0,1-.06-.15,0,0,0,0,0,0,0s0,0,0,0,0,0,0,0h0l0,0v0s0,0,0,0a.09.09,0,0,1,0-.05l0-.14,0-.16s0,0,0,0V9.39a.14.14,0,0,0,0-.07,1.2,1.2,0,0,0,0-.14V9.09a.13.13,0,0,1,0-.08,5.35,5.35,0,0,1,0-1.19,5.82,5.82,0,0,1,.23-1.08,4.55,4.55,0,0,1,.4-.89,6.28,6.28,0,0,1,.51-.73A.72.72,0,0,1,4.36,5l.14-.14.14-.15.08-.06.06-.06.08-.06.08-.08.14-.12a.62.62,0,0,0,.17-.11l.09-.05.08,0,.07,0c-.29.11-.49.2-.61.26a5.64,5.64,0,0,0-.95.64,4.59,4.59,0,0,0-.79.84,5.71,5.71,0,0,0-.58,1,.07.07,0,0,1,0,0v0l0,.08,0,.06a0,0,0,0,1,0,0v0l0,.15,0,.07v.06a.63.63,0,0,0,0,.14s0,0,0,0v.05l0,.06a1.2,1.2,0,0,0,0,.14q0,.14,0,.15l0,.06s0,.07,0,.08a.4.4,0,0,1,0,.15.42.42,0,0,1,0,.14V8.5a.33.33,0,0,1,0,.14V9a.06.06,0,0,0,0,0s0,0,0,0a1.79,1.79,0,0,0,0,.27.37.37,0,0,1,0,.14.09.09,0,0,0,0,0v0l0,.06a.2.2,0,0,0,0,.07.56.56,0,0,0,0,.07l0,.15,0,.13a.9.9,0,0,1,0,.15,5.43,5.43,0,0,0,.42,1.06,7.18,7.18,0,0,0,.56,1,.1.1,0,0,1,0,0l0,.06.09.09.09.12.08.09A2.16,2.16,0,0,0,4,13a3.6,3.6,0,0,0,.38.35l.2.15.19.16a6.28,6.28,0,0,0,1.67.85l.06,0h0l.11,0h.14l0,0,.1,0H7.1l.19,0A3.45,3.45,0,0,0,8,14.89Zm2.19-4.78a3,3,0,0,0,0-4.22A2.9,2.9,0,0,0,8.11,5a3,3,0,0,0-3,3,3,3,0,0,0,3,3A2.9,2.9,0,0,0,10.22,10.11Z" fill="#fff"/></g></g></svg>